<svg id="Line" xmlns="http://www.w3.org/2000/svg" width="64" height="64" viewBox="0 0 64 64"><title>delivery truck</title><path d="M45.5,33A10.5,10.5,0,1,0,56,43.5,10.512,10.512,0,0,0,45.5,33Zm4.207,14.707a1,1,0,0,1-1.414,0l-3-3A1,1,0,0,1,45,44V37a1,1,0,0,1,2,0v6.586l2.707,2.707A1,1,0,0,1,49.707,47.707Z" style="fill:#c4a2fc"/><path d="M44.316,25H17.537a4.5,4.5,0,1,0,0,9h7.084a2.5,2.5,0,1,1,0,5H23.6a4.5,4.5,0,1,0,0,9h3.031a2.5,2.5,0,1,1,0,5H20.568a4.5,4.5,0,1,0,0,9H44.316a18.5,18.5,0,1,0,0-37ZM45.5,56A12.5,12.5,0,1,1,58,43.5,12.514,12.514,0,0,1,45.5,56Z" style="fill:#c4a2fc"/><path d="M50.5,21.941l-7.07-10.6A3,3,0,0,0,40.93,10H35V5a3,3,0,0,0-3-3H2A1,1,0,0,0,2,4H9v6H3a1,1,0,0,0,0,2H9v6H4a1,1,0,0,0,0,2H9v6H5a1,1,0,0,0,0,2H9v5a3,3,0,0,0,3,3h4.35a6,6,0,1,0,11.3,0h8.7a6,6,0,1,0,11.3,0H48a3,3,0,0,0,3-3V23.605A2.989,2.989,0,0,0,50.5,21.941ZM22,42a4,4,0,1,1,4-4A4,4,0,0,1,22,42Zm0-10a5.983,5.983,0,0,0-4.46,2H12a1,1,0,0,1-1-1V4H32a1,1,0,0,1,1,1V34H26.46A5.983,5.983,0,0,0,22,32ZM42,42a4,4,0,1,1,4-4A4,4,0,0,1,42,42Zm7-9a1,1,0,0,1-1,1H46.46a5.973,5.973,0,0,0-8.92,0H35V12h5.93a1,1,0,0,1,.832.445l7.07,10.606a.994.994,0,0,1,.168.554Z" style="fill:#151a6a"/><path d="M40.832,14.445A1,1,0,0,0,40,14H37a1,1,0,0,0-1,1v9a1,1,0,0,0,1,1h9a1,1,0,0,0,.832-1.555ZM38,23V16h1.465l4.666,7Z" style="fill:#151a6a"/><path d="M30,6H14a1,1,0,0,0-1,1V17a1,1,0,0,0,1,1H30a1,1,0,0,0,1-1V7A1,1,0,0,0,30,6ZM26.513,8,22,10.821,17.487,8ZM29,16H15V8.8l6.47,4.044a1,1,0,0,0,1.06,0L29,8.8Z" style="fill:#151a6a"/></svg>